<svg width="100%" height="100%" viewBox="0 0 800 400" xmlns="http://www.w3.org/2000/svg">
  <rect width="800" height="400" fill="#87CEEB"/>
  <rect y="300" width="800" height="100" fill="#7CFC00"/>
  <g fill="#228B22">
    <polygon points="100,300 130,220 160,300"/>
    <polygon points="200,300 230,220 260,300"/>
    <polygon points="300,300 330,220 360,300"/>
    <polygon points="400,300 430,220 460,300"/>
    <polygon points="500,300 530,220 560,300"/>
    <polygon points="600,300 630,220 660,300"/>
  </g>
  <g fill="#006400">
    <polygon points="115,250 130,200 145,250"/>
    <polygon points="215,250 230,200 245,250"/>
    <polygon points="315,250 330,200 345,250"/>
    <polygon points="415,250 430,200 445,250"/>
    <polygon points="515,250 530,200 545,250"/>
    <polygon points="615,250 630,200 645,250"/>
  </g>
  <g fill="#8B4513">
    <rect x="125" y="300" width="10" height="30"/>
    <rect x="225" y="300" width="10" height="30"/>
    <rect x="325" y="300" width="10" height="30"/>
    <rect x="425" y="300" width="10" height="30"/>
    <rect x="525" y="300" width="10" height="30"/>
    <rect x="625" y="300" width="10" height="30"/>
  </g>
</svg>